<svg width="36" height="32" viewBox="0 0 36 32" fill="none" xmlns="http://www.w3.org/2000/svg">
<path d="M25.7167 10.1561C25.884 10.3227 26.0831 10.4549 26.3024 10.5451C26.5217 10.6354 26.7569 10.6818 26.9945 10.6818C27.2321 10.6818 27.4673 10.6354 27.6866 10.5451C27.9059 10.4549 28.1049 10.3227 28.2722 10.1561L35.4707 3.04658C35.8096 2.7119 36 2.25796 36 1.78465C36 1.31133 35.8096 0.857397 35.4707 0.522711C35.1319 0.188025 34.6722 0 34.193 0C33.7138 0 33.2541 0.188025 32.9153 0.522711L26.9945 6.38804L24.673 4.07746C24.5052 3.91174 24.306 3.78028 24.0867 3.6906C23.8675 3.60091 23.6325 3.55475 23.3952 3.55475C22.916 3.55475 22.4564 3.74277 22.1175 4.07746C21.9497 4.24318 21.8166 4.43992 21.7258 4.65644C21.635 4.87296 21.5882 5.10503 21.5882 5.33939C21.5882 5.81271 21.7786 6.26664 22.1175 6.60133L25.7167 10.1561ZM34.193 8.89414C33.7157 8.89414 33.258 9.0814 32.9205 9.41472C32.583 9.74804 32.3934 10.2001 32.3934 10.6715V26.6679C32.3934 27.1393 32.2038 27.5914 31.8663 27.9247C31.5288 28.258 31.071 28.4453 30.5937 28.4453H5.3989C4.9216 28.4453 4.46386 28.258 4.12636 27.9247C3.78887 27.5914 3.59926 27.1393 3.59926 26.6679V9.62286L14.1811 20.0916C15.1911 21.081 16.5557 21.6367 17.9783 21.6379C19.4367 21.6305 20.8333 21.0558 21.8655 20.0383L24.9609 16.9812C25.2998 16.6465 25.4901 16.1926 25.4901 15.7193C25.4901 15.2459 25.2998 14.792 24.9609 14.4573C24.622 14.1226 24.1624 13.9346 23.6832 13.9346C23.2039 13.9346 22.7443 14.1226 22.4054 14.4573L19.2561 17.5677C18.9197 17.8934 18.4674 18.0758 17.9963 18.0758C17.5253 18.0758 17.073 17.8934 16.7366 17.5677L6.13674 7.11677H16.1967C16.674 7.11677 17.1317 6.92951 17.4692 6.59619C17.8067 6.26286 17.9963 5.81078 17.9963 5.33939C17.9963 4.86801 17.8067 4.41592 17.4692 4.0826C17.1317 3.74928 16.674 3.56202 16.1967 3.56202H5.3989C3.96702 3.56202 2.59379 4.1238 1.5813 5.12376C0.568811 6.12373 0 7.47997 0 8.89414V26.6679C0 28.082 0.568811 29.4383 1.5813 30.4383C2.59379 31.4382 3.96702 32 5.3989 32H30.5937C32.0256 32 33.3988 31.4382 34.4113 30.4383C35.4238 29.4383 35.9926 28.082 35.9926 26.6679V10.6715C35.9926 10.2001 35.803 9.74804 35.4655 9.41472C35.128 9.0814 34.6703 8.89414 34.193 8.89414Z" fill="#0B8EF9"/>
</svg>
